<?xml version="1.0" encoding="UTF-8"?>
<svg version="1.1" xmlns="http://www.w3.org/2000/svg" width="83" height="81">
<path d="M0 0 C27.39 0 54.78 0 83 0 C83 26.73 83 53.46 83 81 C55.61 81 28.22 81 0 81 C0 54.27 0 27.54 0 0 Z " fill="#FEFEFE" transform="translate(0,0)"/>
<path d="M0 0 C0.59312988 0.19996582 1.18625977 0.39993164 1.79736328 0.60595703 C1.87822704 3.54400699 1.93779158 6.47983778 1.98486328 9.41845703 C2.01 10.25183594 2.03513672 11.08521484 2.06103516 11.94384766 C2.07070313 12.74628906 2.08037109 13.54873047 2.09033203 14.37548828 C2.10604248 15.11387939 2.12175293 15.85227051 2.13793945 16.61303711 C1.70810495 19.12826225 0.72273266 20.00037219 -1.20263672 21.60595703 C0.01744272 24.29650983 0.01744272 24.29650983 1.79736328 26.60595703 C1.88368202 27.94863116 1.90442801 29.29570025 1.89501953 30.64111328 C1.89179687 31.45 1.88857422 32.25888672 1.88525391 33.09228516 C1.876875 33.94242188 1.86849609 34.79255859 1.85986328 35.66845703 C1.85535156 36.52246094 1.85083984 37.37646484 1.84619141 38.25634766 C1.83436702 40.37291367 1.81643097 42.48944388 1.79736328 44.60595703 C-0.62904431 45.49025682 -1.75510554 45.79903366 -4.16967773 44.75732422 C-4.84184326 44.3103418 -5.51400879 43.86335938 -6.20654297 43.40283203 C-6.94710938 42.91685547 -7.68767578 42.43087891 -8.45068359 41.93017578 C-9.21445312 41.41068359 -9.97822266 40.89119141 -10.76513672 40.35595703 C-11.53277344 39.85193359 -12.30041016 39.34791016 -13.09130859 38.82861328 C-21.88878743 32.9840807 -21.88878743 32.9840807 -22.63842773 29.69238281 C-22.71229111 27.37058429 -22.75959683 25.05401876 -22.76513672 22.73095703 C-22.801875 21.92787109 -22.83861328 21.12478516 -22.87646484 20.29736328 C-22.90942109 15.85193226 -22.7512455 14.1918017 -19.61279297 10.84033203 C-18.4934008 10.06974439 -17.35547638 9.32554361 -16.20263672 8.60595703 C-15.03333916 7.77526548 -13.86406872 6.94453576 -12.69482422 6.11376953 C-11.49188053 5.3152863 -10.28612547 4.5210228 -9.07763672 3.73095703 C-8.47048828 3.31587891 -7.86333984 2.90080078 -7.23779297 2.47314453 C-2.71166853 -0.48510674 -2.71166853 -0.48510674 0 0 Z " fill="#FE9972" transform="translate(38.20263671875,23.39404296875)"/>
<path d="M0 0 C3.00217809 0.49534534 5.22341578 1.57577534 7.78515625 3.1796875 C8.48060547 3.61410156 9.17605469 4.04851563 9.89257812 4.49609375 C10.60865234 4.95113281 11.32472656 5.40617188 12.0625 5.875 C12.78244141 6.32230469 13.50238281 6.76960938 14.24414062 7.23046875 C22.63333054 12.5116858 22.63333054 12.5116858 23.4675293 15.89770508 C24.17794797 30.02642051 24.17794797 30.02642051 21.6640625 34.23828125 C19.53775215 35.83077107 17.40544808 36.86865424 15 38 C13.30829778 39.09264061 11.61689676 40.18582962 9.93432617 41.29248047 C7.33625517 42.99547879 4.77519568 44.59911463 2 46 C1.01 45.67 0.02 45.34 -1 45 C-1 38.73 -1 32.46 -1 26 C0.32 25.34 1.64 24.68 3 24 C3 23.34 3 22.68 3 22 C2.01 21.67 1.02 21.34 0 21 C-1.13945516 18.72108967 -1.12894214 17.43217896 -1.1328125 14.90234375 C-1.13410156 14.10119141 -1.13539062 13.30003906 -1.13671875 12.47460938 C-1.13285156 11.63736328 -1.12898438 10.80011719 -1.125 9.9375 C-1.12886719 9.09638672 -1.13273437 8.25527344 -1.13671875 7.38867188 C-1.12662682 1.12662682 -1.12662682 1.12662682 0 0 Z " fill="#FE9C71" transform="translate(46,10)"/>
<path d="M0 0 C0.61746094 0.42152344 1.23492187 0.84304687 1.87109375 1.27734375 C7.76296763 5.08867769 11.97757332 6.77347011 19 7 C18.64264404 9.68596856 18.26832815 10.76703152 16.18994141 12.5715332 C15.41827637 13.05968506 14.64661133 13.54783691 13.8515625 14.05078125 C13.01109375 14.58380859 12.170625 15.11683594 11.3046875 15.66601562 C10.42039062 16.20935547 9.53609375 16.75269531 8.625 17.3125 C7.7484375 17.87517578 6.871875 18.43785156 5.96875 19.01757812 C1.08406578 22.06863853 1.08406578 22.06863853 -1 23 C-1.99 22.67 -2.98 22.34 -4 22 C-4.11613204 18.89614789 -4.18722029 15.79285338 -4.25 12.6875 C-4.28351562 11.80642578 -4.31703125 10.92535156 -4.3515625 10.01757812 C-4.45112665 3.47123501 -4.45112665 3.47123501 -1.984375 0.89453125 C-1.32953125 0.59933594 -0.6746875 0.30414063 0 0 Z " fill="#C983BA" transform="translate(49,33)"/>
<path d="M0 0 C0 4.95 0 9.9 0 15 C-2.89608593 15.05413245 -5.79115195 15.09373641 -8.6875 15.125 C-9.91243164 15.15013672 -9.91243164 15.15013672 -11.16210938 15.17578125 C-15.57092929 15.2114802 -18.98731576 15.07580814 -23 13 C-19.30673489 9.06145162 -15.46877273 6.0465417 -10.9375 3.125 C-10.02000977 2.50238281 -10.02000977 2.50238281 -9.08398438 1.8671875 C-4.47908835 -1.11977209 -4.47908835 -1.11977209 0 0 Z " fill="#C380C3" transform="translate(40,24)"/>
<path d="M0 0 C1.5675 0.165 3.135 0.33 4.75 0.5 C10.84392873 1.06263841 16.88507315 1.09604597 23 1 C23.33 2.32 23.66 3.64 24 5 C16.64620532 10.80274618 11.56935382 13.80841299 2 13 C1.34 12.67 0.68 12.34 0 12 C0 8.04 0 4.08 0 0 Z " fill="#DD8688" transform="translate(16,37)"/>
<path d="M0 0 C0.33 0 0.66 0 1 0 C1 5.94 1 11.88 1 18 C0.67 17.34 0.34 16.68 0 16 C-0.680625 16.226875 -1.36125 16.45375 -2.0625 16.6875 C-8.06634516 17.32620693 -13.36420602 13.50511252 -18 10 C-18 9.34 -18 8.68 -18 8 C-12.42531458 4.38398784 -7.39432346 4.69279941 -1 5 C-0.67 3.35 -0.34 1.7 0 0 Z " fill="#E3887D" transform="translate(68,24)"/>
<path d="M0 0 C-2.59356629 1.70424172 -5.20135036 3.38534714 -7.8125 5.0625 C-8.55048828 5.54783203 -9.28847656 6.03316406 -10.04882812 6.53320312 C-10.76103516 6.98759766 -11.47324219 7.44199219 -12.20703125 7.91015625 C-12.8616333 8.33433838 -13.51623535 8.75852051 -14.19067383 9.19555664 C-16 10 -16 10 -19 9 C-19 6.03 -19 3.06 -19 0 C-16.20865148 -0.19425873 -13.41716313 -0.38069517 -10.625 -0.5625 C-9.8309375 -0.61857422 -9.036875 -0.67464844 -8.21875 -0.73242188 C-2.2265625 -1.11328125 -2.2265625 -1.11328125 0 0 Z " fill="#B479DC" transform="translate(64,46)"/>
<path d="M0 0 C0 2.97 0 5.94 0 9 C-5.61 9 -11.22 9 -17 9 C-11.23756906 3.23756906 -11.23756906 3.23756906 -7.9375 1.125 C-7.28652344 0.69445312 -6.63554688 0.26390625 -5.96484375 -0.1796875 C-4 -1 -4 -1 0 0 Z " fill="#B278DE" transform="translate(40,24)"/>
<path d="M0 0 C0.33 0 0.66 0 1 0 C1 5.94 1 11.88 1 18 C0.67 17.34 0.34 16.68 0 16 C-0.680625 16.226875 -1.36125 16.45375 -2.0625 16.6875 C-6.07192929 17.11403503 -8.46989102 15.8329412 -12 14 C-12.33 13.34 -12.66 12.68 -13 12 C-9.34641788 10.17320894 -5.01991656 10.36076174 -1 10 C-0.67 6.7 -0.34 3.4 0 0 Z " fill="#D98C98" transform="translate(68,24)"/>
<path d="M0 0 C1.77503906 0.03480469 1.77503906 0.03480469 3.5859375 0.0703125 C5.36871094 0.09738281 5.36871094 0.09738281 7.1875 0.125 C8.10273437 0.14820313 9.01796875 0.17140625 9.9609375 0.1953125 C10.53125 2.08203125 10.53125 2.08203125 10.9609375 4.1953125 C9.8359375 6.0078125 9.8359375 6.0078125 7.9609375 7.1953125 C3.22770097 7.06007717 -0.9436796 4.38019419 -5.0390625 2.1953125 C-3.0390625 0.1953125 -3.0390625 0.1953125 0 0 Z " fill="#D389AA" transform="translate(29.0390625,37.8046875)"/>
<path d="M0 0 C0.33 0.99 0.66 1.98 1 3 C4.3 2.67 7.6 2.34 11 2 C11 2.66 11 3.32 11 4 C9.390625 5.32421875 9.390625 5.32421875 7.25 6.6875 C6.55390625 7.14511719 5.8578125 7.60273437 5.140625 8.07421875 C2.60909275 9.16906025 1.53899138 8.9435441 -1 8 C-1.125 2.25 -1.125 2.25 0 0 Z " fill="#F39066" transform="translate(17,47)"/>
<path d="M0 0 C0 2.31 0 4.62 0 7 C-3.63 6.67 -7.26 6.34 -11 6 C-3.8 0 -3.8 0 0 0 Z " fill="#F38E62" transform="translate(68,23)"/>
<path d="M0 0 C2.64 0.33 5.28 0.66 8 1 C8 1.66 8 2.32 8 3 C5.6875 4.6875 5.6875 4.6875 3 6 C2.01 5.67 1.02 5.34 0 5 C0 3.35 0 1.7 0 0 Z " fill="#A672F1" transform="translate(45,50)"/>
<path d="M0 0 C3.49171665 0.49881666 6.06073923 2.12213895 9 4 C8.67 4.66 8.34 5.32 8 6 C6.824375 5.2575 6.824375 5.2575 5.625 4.5 C3.21447673 2.83462035 3.21447673 2.83462035 1 3 C0.67 4.65 0.34 6.3 0 8 C-0.33 8 -0.66 8 -1 8 C-1.04241723 5.66705225 -1.04092937 3.33297433 -1 1 C-0.67 0.67 -0.34 0.34 0 0 Z " fill="#FF7F74" transform="translate(46,10)"/>
<path d="M0 0 C0.598125 0.20625 1.19625 0.4125 1.8125 0.625 C1.8125 1.615 1.8125 2.605 1.8125 3.625 C-0.4975 3.625 -2.8075 3.625 -5.1875 3.625 C-5.1875 2.965 -5.1875 2.305 -5.1875 1.625 C-2.1875 -0.375 -2.1875 -0.375 0 0 Z " fill="#A978F5" transform="translate(38.1875,23.375)"/>
</svg>
